# Blender v3.2.0 OBJ File: ''
# www.blender.org
mtllib concretefloor006a.mtl
o concretefloor006a.vmt_gm_eternal_ring.009
v 1340.000122 26.793570 -40.000061
v 1340.000122 26.793570 -32.000061
v 1336.000122 26.793570 -32.000061
v 1330.000122 26.793570 -38.000061
v 1336.000122 26.793570 -44.000061
v 1336.000122 50.793571 -44.000061
v 1340.000122 50.793571 -40.000061
v 1340.000122 50.793571 -32.000061
v 1336.000122 50.793571 -32.000061
v 1330.000122 50.793571 -38.000061
v 1288.000122 26.793570 -80.000061
v 1288.000122 26.793570 -84.000061
v 1296.000122 26.793570 -84.000061
v 1294.000122 26.793570 -74.000061
v 1300.000122 26.793570 -80.000061
v 1296.000122 50.793571 -84.000061
v 1300.000122 50.793571 -80.000061
v 1288.000122 50.793571 -84.000061
v 1288.000122 50.793571 -80.000061
v 1294.000122 50.793571 -74.000061
v 1296.000122 26.793570 84.000061
v 1288.000122 26.793570 84.000061
v 1288.000122 26.793570 80.000061
v 1294.000122 26.793570 74.000061
v 1300.000122 26.793570 80.000061
v 1300.000122 50.793571 80.000061
v 1296.000122 50.793571 84.000061
v 1288.000122 50.793571 84.000061
v 1288.000122 50.793571 80.000061
v 1294.000122 50.793571 74.000061
v 1336.000122 26.793570 32.000061
v 1340.000122 26.793570 32.000061
v 1340.000122 26.793570 40.000061
v 1330.000122 26.793570 38.000061
v 1336.000122 26.793570 44.000061
v 1340.000122 50.793571 40.000061
v 1336.000122 50.793571 44.000061
v 1340.000122 50.793571 32.000061
v 1336.000122 50.793571 32.000061
v 1330.000122 50.793571 38.000061
v 1224.000122 26.793570 80.000061
v 1224.000122 26.793570 84.000061
v 1216.000122 26.793570 84.000061
v 1218.000122 26.793570 74.000061
v 1212.000122 26.793570 80.000061
v 1216.000122 50.793571 84.000061
v 1212.000122 50.793571 80.000061
v 1224.000122 50.793571 84.000061
v 1224.000122 50.793571 80.000061
v 1218.000122 50.793571 74.000061
v 1172.000122 26.793570 40.000061
v 1172.000122 26.793570 32.000061
v 1176.000122 26.793570 32.000061
v 1182.000122 26.793570 38.000061
v 1176.000122 26.793570 44.000061
v 1176.000122 50.793571 44.000061
v 1172.000122 50.793571 40.000061
v 1172.000122 50.793571 32.000061
v 1176.000122 50.793571 32.000061
v 1182.000122 50.793571 38.000061
v 1176.000122 26.793570 -32.000061
v 1172.000122 26.793570 -32.000061
v 1172.000122 26.793570 -40.000061
v 1182.000122 26.793570 -38.000061
v 1176.000122 26.793570 -44.000061
v 1172.000122 50.793571 -40.000061
v 1176.000122 50.793571 -44.000061
v 1172.000122 50.793571 -32.000061
v 1176.000122 50.793571 -32.000061
v 1182.000122 50.793571 -38.000061
v 1216.000122 26.793570 -84.000061
v 1224.000122 26.793570 -84.000061
v 1224.000122 26.793570 -80.000061
v 1218.000122 26.793570 -74.000061
v 1212.000122 26.793570 -80.000061
v 1212.000122 50.793571 -80.000061
v 1216.000122 50.793571 -84.000061
v 1224.000122 50.793571 -84.000061
v 1224.000122 50.793571 -80.000061
v 1218.000122 50.793571 -74.000061
v 1216.000122 78.793571 84.000061
v 1228.000122 78.793571 84.000061
v 1172.000122 78.793571 28.000061
v 1172.000122 78.793571 40.000061
v 1172.000122 58.793571 40.000061
v 1216.000122 58.793571 84.000061
v 1228.000122 58.793571 84.000061
v 1172.000122 58.793571 28.000061
v 1340.000122 78.793571 28.000061
v 1284.000122 78.793571 84.000061
v 1296.000122 78.793571 84.000061
v 1340.000122 78.793571 40.000061
v 1296.000122 58.793571 84.000061
v 1340.000122 58.793571 40.000061
v 1284.000122 58.793571 84.000061
v 1340.000122 58.793571 28.000061
v 1284.000122 78.793571 -84.000061
v 1340.000122 78.793571 -28.000061
v 1340.000122 78.793571 -40.000061
v 1296.000122 78.793571 -84.000061
v 1340.000122 58.793571 -40.000061
v 1296.000122 58.793571 -84.000061
v 1340.000122 58.793571 -28.000061
v 1284.000122 58.793571 -84.000061
v 1172.000122 78.793571 -28.000061
v 1228.000122 78.793571 -84.000061
v 1216.000122 78.793571 -84.000061
v 1172.000122 78.793571 -40.000061
v 1216.000122 58.793571 -84.000061
v 1172.000122 58.793571 -40.000061
v 1228.000122 58.793571 -84.000061
v 1172.000122 58.793571 -28.000061
v 1292.000122 78.793571 76.000061
v 1220.000122 78.793571 76.000061
v 1220.000122 58.793571 76.000061
v 1292.000122 58.793571 76.000061
v 1220.000122 78.793571 -76.000061
v 1292.000122 78.793571 -76.000061
v 1292.000122 58.793571 -76.000061
v 1220.000122 58.793571 -76.000061
v 1332.000122 78.793571 -36.000061
v 1332.000122 78.793571 36.000061
v 1332.000122 58.793571 36.000061
v 1332.000122 58.793571 -36.000061
v 1180.000122 78.793571 -28.000061
v 1180.000122 78.793571 -36.000061
v 1180.000122 58.793571 -36.000061
v 1180.000122 58.793571 -28.000061
v 1180.000122 78.793571 36.000061
v 1180.000122 78.793571 28.000061
v 1180.000122 58.793571 28.000061
v 1180.000122 58.793571 36.000061
vt 0.000000 0.000000
vt 0.000000 0.000000
vt 0.000000 0.000000
vt 0.000000 0.000000
vt 0.000000 0.000000
vt 0.000000 0.000000
vt 0.000000 0.000000
vt 0.000000 0.000000
vt 0.000000 0.000000
vt 0.000000 0.000000
vt 0.000000 0.000000
vt 0.000000 0.000000
vt 0.000000 0.000000
vt 0.000000 0.000000
vt 0.000000 0.000000
vt 0.000000 0.000000
vt 0.000000 0.000000
vt 0.000000 0.000000
vt 0.000000 0.000000
vt 0.000000 0.000000
vt 0.000000 0.000000
vt 0.000000 0.000000
vt 0.000000 0.000000
vt 0.000000 0.000000
vt 0.000000 0.000000
vt 0.000000 0.000000
vt 0.000000 0.000000
vt 0.000000 0.000000
vt 0.000000 0.000000
vt 0.000000 0.000000
vt 0.000000 0.000000
vt 0.000000 0.000000
vt 0.000000 0.000000
vt 0.000000 0.000000
vt 0.000000 0.000000
vt 0.000000 0.000000
vt 0.000000 0.000000
vt 0.000000 0.000000
vt 0.000000 0.000000
vt 0.000000 0.000000
vt 0.000000 0.000000
vt 0.000000 0.000000
vt 0.000000 0.000000
vt 0.000000 0.000000
vt 0.000000 0.000000
vt 0.000000 0.000000
vt 0.000000 0.000000
vt 0.000000 0.000000
vt 0.000000 0.000000
vt 0.000000 0.000000
vt 0.000000 0.000000
vt 0.000000 0.000000
vt 0.000000 0.000000
vt 0.000000 0.000000
vt 0.000000 0.000000
vt 0.000000 0.000000
vt 0.000000 0.000000
vt 0.000000 0.000000
vt 0.000000 0.000000
vt 0.000000 0.000000
vt 0.000000 0.000000
vt 0.000000 0.000000
vt 0.000000 0.000000
vt 0.000000 0.000000
vt 0.000000 0.000000
vt 0.000000 0.000000
vt 0.000000 0.000000
vt 0.000000 0.000000
vt 0.000000 0.000000
vt 0.000000 0.000000
vt 0.000000 0.000000
vt 0.000000 0.000000
vt 0.000000 0.000000
vt 0.000000 0.000000
vt 0.000000 0.000000
vt 0.000000 0.000000
vt 0.000000 0.000000
vt 0.000000 0.000000
vt 0.000000 0.000000
vt 0.000000 0.000000
vt 0.000000 0.000000
vt 0.000000 0.000000
vt 0.000000 0.000000
vt 0.000000 0.000000
vt 0.000000 0.000000
vt 0.000000 0.000000
vt 0.000000 0.000000
vt 0.000000 0.000000
vt 0.000000 0.000000
vt 0.000000 0.000000
vt 0.000000 0.000000
vt 0.000000 0.000000
vt 0.000000 0.000000
vt 0.000000 0.000000
vt 0.000000 0.000000
vt 0.000000 0.000000
vt 0.000000 0.000000
vt 0.000000 0.000000
vt 0.000000 0.000000
vt 0.000000 0.000000
vt 0.000000 0.000000
vt 0.000000 0.000000
vt 0.000000 0.000000
vt 0.000000 0.000000
vt 0.000000 0.000000
vt 0.000000 0.000000
vt 0.000000 0.000000
vt 0.000000 0.000000
vt 0.000000 0.000000
vt 0.000000 0.000000
vt 0.000000 0.000000
vt 0.000000 0.000000
vt 0.000000 0.000000
vt 0.000000 0.000000
vt 0.000000 0.000000
vt 0.000000 0.000000
vt 0.000000 0.000000
vt 0.000000 0.000000
vt 0.000000 0.000000
vt 0.000000 0.000000
vt 0.000000 0.000000
vt 0.000000 0.000000
vt 0.000000 0.000000
vt 0.000000 0.000000
vt 0.000000 0.000000
vt 0.000000 0.000000
vt 0.000000 0.000000
vt 0.000000 0.000000
vt 0.000000 0.000000
vt 0.000000 0.000000
vt 0.000000 0.000000
vt 0.000000 0.000000
vn 0.0000 -1.0000 0.0000
vn 0.7071 0.0000 -0.7071
vn 1.0000 0.0000 0.0000
vn 0.0000 1.0000 0.0000
vn 0.0000 0.0000 1.0000
vn -0.7071 0.0000 -0.7071
vn -0.7071 0.0000 0.7071
vn 0.0000 0.0000 -1.0000
vn -1.0000 0.0000 0.0000
vn 0.7071 0.0000 0.7071
usemtl concretefloor006a.vmt
s 1
f 1/1/1 2/2/1 3/3/1
f 1/1/1 3/3/1 4/4/1
f 1/1/1 4/4/1 5/5/1
f 6/6/2 7/7/2 1/1/2
f 5/5/2 6/6/2 1/1/2
f 1/1/3 7/7/3 8/8/3
f 1/1/3 8/8/3 2/2/3
f 9/9/4 8/8/4 7/7/4
f 10/10/4 9/9/4 7/7/4
f 6/6/4 10/10/4 7/7/4
f 2/2/5 8/8/5 9/9/5
f 2/2/5 9/9/5 3/3/5
f 10/10/6 6/6/6 5/5/6
f 4/4/6 10/10/6 5/5/6
f 3/3/7 9/9/7 10/10/7
f 3/3/7 10/10/7 4/4/7
f 11/11/1 12/12/1 13/13/1
f 14/14/1 11/11/1 13/13/1
f 15/15/1 14/14/1 13/13/1
f 13/13/2 16/16/2 17/17/2
f 13/13/2 17/17/2 15/15/2
f 18/18/8 16/16/8 13/13/8
f 12/12/8 18/18/8 13/13/8
f 16/16/4 18/18/4 19/19/4
f 16/16/4 19/19/4 20/20/4
f 16/16/4 20/20/4 17/17/4
f 19/19/9 18/18/9 12/12/9
f 11/11/9 19/19/9 12/12/9
f 15/15/10 17/17/10 20/20/10
f 15/15/10 20/20/10 14/14/10
f 20/20/7 19/19/7 11/11/7
f 14/14/7 20/20/7 11/11/7
f 21/21/1 22/22/1 23/23/1
f 21/21/1 23/23/1 24/24/1
f 21/21/1 24/24/1 25/25/1
f 26/26/10 27/27/10 21/21/10
f 25/25/10 26/26/10 21/21/10
f 21/21/5 27/27/5 28/28/5
f 21/21/5 28/28/5 22/22/5
f 29/29/4 28/28/4 27/27/4
f 30/30/4 29/29/4 27/27/4
f 26/26/4 30/30/4 27/27/4
f 22/22/9 28/28/9 29/29/9
f 22/22/9 29/29/9 23/23/9
f 30/30/2 26/26/2 25/25/2
f 24/24/2 30/30/2 25/25/2
f 23/23/6 29/29/6 30/30/6
f 23/23/6 30/30/6 24/24/6
f 31/31/1 32/32/1 33/33/1
f 34/34/1 31/31/1 33/33/1
f 35/35/1 34/34/1 33/33/1
f 33/33/10 36/36/10 37/37/10
f 33/33/10 37/37/10 35/35/10
f 38/38/3 36/36/3 33/33/3
f 32/32/3 38/38/3 33/33/3
f 36/36/4 38/38/4 39/39/4
f 36/36/4 39/39/4 40/40/4
f 36/36/4 40/40/4 37/37/4
f 39/39/8 38/38/8 32/32/8
f 31/31/8 39/39/8 32/32/8
f 35/35/7 37/37/7 40/40/7
f 35/35/7 40/40/7 34/34/7
f 40/40/6 39/39/6 31/31/6
f 34/34/6 40/40/6 31/31/6
f 41/41/1 42/42/1 43/43/1
f 44/44/1 41/41/1 43/43/1
f 45/45/1 44/44/1 43/43/1
f 43/43/7 46/46/7 47/47/7
f 43/43/7 47/47/7 45/45/7
f 48/48/5 46/46/5 43/43/5
f 42/42/5 48/48/5 43/43/5
f 46/46/4 48/48/4 49/49/4
f 46/46/4 49/49/4 50/50/4
f 46/46/4 50/50/4 47/47/4
f 49/49/3 48/48/3 42/42/3
f 41/41/3 49/49/3 42/42/3
f 45/45/6 47/47/6 50/50/6
f 45/45/6 50/50/6 44/44/6
f 50/50/2 49/49/2 41/41/2
f 44/44/2 50/50/2 41/41/2
f 51/51/1 52/52/1 53/53/1
f 51/51/1 53/53/1 54/54/1
f 51/51/1 54/54/1 55/55/1
f 56/56/7 57/57/7 51/51/7
f 55/55/7 56/56/7 51/51/7
f 51/51/9 57/57/9 58/58/9
f 51/51/9 58/58/9 52/52/9
f 59/59/4 58/58/4 57/57/4
f 60/60/4 59/59/4 57/57/4
f 56/56/4 60/60/4 57/57/4
f 52/52/8 58/58/8 59/59/8
f 52/52/8 59/59/8 53/53/8
f 60/60/10 56/56/10 55/55/10
f 54/54/10 60/60/10 55/55/10
f 53/53/2 59/59/2 60/60/2
f 53/53/2 60/60/2 54/54/2
f 61/61/1 62/62/1 63/63/1
f 64/64/1 61/61/1 63/63/1
f 65/65/1 64/64/1 63/63/1
f 63/63/6 66/66/6 67/67/6
f 63/63/6 67/67/6 65/65/6
f 68/68/9 66/66/9 63/63/9
f 62/62/9 68/68/9 63/63/9
f 66/66/4 68/68/4 69/69/4
f 66/66/4 69/69/4 70/70/4
f 66/66/4 70/70/4 67/67/4
f 69/69/5 68/68/5 62/62/5
f 61/61/5 69/69/5 62/62/5
f 65/65/2 67/67/2 70/70/2
f 65/65/2 70/70/2 64/64/2
f 70/70/10 69/69/10 61/61/10
f 64/64/10 70/70/10 61/61/10
f 71/71/1 72/72/1 73/73/1
f 71/71/1 73/73/1 74/74/1
f 71/71/1 74/74/1 75/75/1
f 76/76/6 77/77/6 71/71/6
f 75/75/6 76/76/6 71/71/6
f 71/71/8 77/77/8 78/78/8
f 71/71/8 78/78/8 72/72/8
f 79/79/4 78/78/4 77/77/4
f 80/80/4 79/79/4 77/77/4
f 76/76/4 80/80/4 77/77/4
f 72/72/3 78/78/3 79/79/3
f 72/72/3 79/79/3 73/73/3
f 80/80/7 76/76/7 75/75/7
f 74/74/7 80/80/7 75/75/7
f 73/73/10 79/79/10 80/80/10
f 73/73/10 80/80/10 74/74/10
f 81/81/4 82/82/4 83/83/4
f 81/81/4 83/83/4 84/84/4
f 85/85/7 86/86/7 81/81/7
f 84/84/7 85/85/7 81/81/7
f 81/81/5 86/86/5 87/87/5
f 81/81/5 87/87/5 82/82/5
f 88/88/9 85/85/9 84/84/9
f 83/83/9 88/88/9 84/84/9
f 88/88/1 87/87/1 86/86/1
f 85/85/1 88/88/1 86/86/1
f 82/82/2 87/87/2 88/88/2
f 82/82/2 88/88/2 83/83/2
f 89/89/4 90/90/4 91/91/4
f 92/92/4 89/89/4 91/91/4
f 91/91/10 93/93/10 94/94/10
f 91/91/10 94/94/10 92/92/10
f 95/95/5 93/93/5 91/91/5
f 90/90/5 95/95/5 91/91/5
f 92/92/3 94/94/3 96/96/3
f 92/92/3 96/96/3 89/89/3
f 93/93/1 95/95/1 96/96/1
f 93/93/1 96/96/1 94/94/1
f 96/96/6 95/95/6 90/90/6
f 89/89/6 96/96/6 90/90/6
f 97/97/4 98/98/4 99/99/4
f 100/100/4 97/97/4 99/99/4
f 99/99/2 101/101/2 102/102/2
f 99/99/2 102/102/2 100/100/2
f 103/103/3 101/101/3 99/99/3
f 98/98/3 103/103/3 99/99/3
f 100/100/8 102/102/8 104/104/8
f 100/100/8 104/104/8 97/97/8
f 101/101/1 103/103/1 104/104/1
f 101/101/1 104/104/1 102/102/1
f 104/104/7 103/103/7 98/98/7
f 97/97/7 104/104/7 98/98/7
f 105/105/4 106/106/4 107/107/4
f 108/108/4 105/105/4 107/107/4
f 107/107/6 109/109/6 110/110/6
f 107/107/6 110/110/6 108/108/6
f 111/111/8 109/109/8 107/107/8
f 106/106/8 111/111/8 107/107/8
f 108/108/9 110/110/9 112/112/9
f 108/108/9 112/112/9 105/105/9
f 109/109/1 111/111/1 112/112/1
f 109/109/1 112/112/1 110/110/1
f 112/112/10 111/111/10 106/106/10
f 105/105/10 112/112/10 106/106/10
f 113/113/4 114/114/4 82/82/4
f 90/90/4 113/113/4 82/82/4
f 82/82/5 87/87/5 95/95/5
f 82/82/5 95/95/5 90/90/5
f 87/87/1 115/115/1 116/116/1
f 87/87/1 116/116/1 95/95/1
f 115/115/7 87/87/7 82/82/7
f 114/114/7 115/115/7 82/82/7
f 90/90/10 95/95/10 116/116/10
f 90/90/10 116/116/10 113/113/10
f 116/116/8 115/115/8 114/114/8
f 113/113/8 116/116/8 114/114/8
f 106/106/4 117/117/4 118/118/4
f 106/106/4 118/118/4 97/97/4
f 104/104/8 111/111/8 106/106/8
f 97/97/8 104/104/8 106/106/8
f 119/119/1 120/120/1 111/111/1
f 104/104/1 119/119/1 111/111/1
f 106/106/6 111/111/6 120/120/6
f 106/106/6 120/120/6 117/117/6
f 119/119/2 104/104/2 97/97/2
f 118/118/2 119/119/2 97/97/2
f 117/117/5 120/120/5 119/119/5
f 117/117/5 119/119/5 118/118/5
f 98/98/4 121/121/4 122/122/4
f 98/98/4 122/122/4 89/89/4
f 96/96/3 103/103/3 98/98/3
f 89/89/3 96/96/3 98/98/3
f 123/123/1 124/124/1 103/103/1
f 96/96/1 123/123/1 103/103/1
f 98/98/2 103/103/2 124/124/2
f 98/98/2 124/124/2 121/121/2
f 123/123/10 96/96/10 89/89/10
f 122/122/10 123/123/10 89/89/10
f 121/121/9 124/124/9 123/123/9
f 121/121/9 123/123/9 122/122/9
f 105/105/4 125/125/4 126/126/4
f 127/127/1 128/128/1 112/112/1
f 126/126/6 127/127/6 112/112/6
f 126/126/6 112/112/6 105/105/6
f 128/128/3 127/127/3 126/126/3
f 125/125/3 128/128/3 126/126/3
f 105/105/5 112/112/5 128/128/5
f 105/105/5 128/128/5 125/125/5
f 129/129/4 130/130/4 83/83/4
f 88/88/1 131/131/1 132/132/1
f 88/88/7 132/132/7 129/129/7
f 83/83/7 88/88/7 129/129/7
f 129/129/3 132/132/3 131/131/3
f 129/129/3 131/131/3 130/130/3
f 131/131/8 88/88/8 83/83/8
f 130/130/8 131/131/8 83/83/8
f 85/85/7 57/57/7 46/46/7
f 86/86/7 85/85/7 46/46/7
f 77/77/6 66/66/6 110/110/6
f 77/77/6 110/110/6 109/109/6
f 7/7/2 16/16/2 102/102/2
f 7/7/2 102/102/2 101/101/2
f 27/27/10 36/36/10 94/94/10
f 27/27/10 94/94/10 93/93/10
f 46/46/5 27/27/5 93/93/5
f 46/46/5 93/93/5 86/86/5
f 94/94/3 36/36/3 7/7/3
f 101/101/3 94/94/3 7/7/3
f 102/102/8 16/16/8 77/77/8
f 109/109/8 102/102/8 77/77/8
f 110/110/9 66/66/9 57/57/9
f 85/85/9 110/110/9 57/57/9
