# Blender v3.2.0 OBJ File: ''
# www.blender.org
mtllib concretefloor010a.mtl
o concretefloor010a.vmt_gm_eternal_ring.011
v 1160.000122 26.793570 48.000061
v 1208.000122 26.793570 96.000061
v 1304.000122 26.793570 96.000061
v 1352.000122 26.793570 48.000061
v 1352.000122 26.793570 -48.000061
v 1304.000122 26.793570 -96.000061
v 1208.000122 26.793570 -96.000061
v 1160.000122 26.793570 -48.000061
v 1304.000122 -261.206421 96.000061
v 1208.000122 -261.206421 96.000061
v 1160.000122 -261.206421 48.000061
v 1352.000122 -261.206421 48.000061
v 1352.000122 -261.206421 -48.000061
v 1304.000122 -261.206421 -96.000061
v 1208.000122 -261.206421 -96.000061
v 1160.000122 -261.206421 -48.000061
v 12.000000 30.793570 -184.000061
v 12.000000 30.793570 -196.000061
v -280.000000 30.793570 -196.000061
v 12.000000 -261.206421 -184.000061
v 12.000000 -261.206421 -196.000061
v -280.000000 -261.206421 -196.000061
v 12.000000 30.793570 -48.000061
v 12.000000 -261.206421 -48.000061
v 12.000000 26.793570 -48.000061
v 1160.000122 -5.206423 -48.000061
v 12.000000 -5.206423 -48.000061
v 12.000000 26.793570 48.000061
v 12.000000 -5.206423 48.000061
v 1160.000122 -5.206423 48.000061
v 104.000000 -37.206421 -48.000061
v 96.000000 -37.206421 -48.000061
v 16.000000 -37.206421 -48.000061
v 8.000000 -37.206421 -48.000061
v 8.000000 -5.206423 -48.000061
v 32.000000 -5.206423 -48.000061
v 8.000000 -5.206423 48.000061
v 8.000000 -37.206421 48.000061
v 16.000000 -37.206421 48.000061
v 32.000000 -5.206423 48.000061
v 84.000000 -13.206423 -48.000061
v 28.000000 -13.206423 -48.000061
v 80.000000 -5.206423 -48.000061
v 28.000000 -13.206423 48.000061
v 84.000000 -13.206423 48.000061
v 80.000000 -5.206423 48.000061
v 104.000000 -5.206423 -48.000061
v 96.000000 -37.206421 48.000061
v 104.000000 -37.206421 48.000061
v 104.000000 -5.206423 48.000061
v 192.000000 -37.206421 48.000061
v 200.000000 -37.206421 48.000061
v 112.000000 -37.206421 48.000061
v 200.000000 -5.206423 -48.000061
v 200.000000 -37.206421 -48.000061
v 192.000000 -37.206421 -48.000061
v 176.000000 -5.206423 -48.000061
v 200.000000 -5.206423 48.000061
v 176.000000 -5.206423 48.000061
v 180.000000 -13.206423 -48.000061
v 124.000000 -13.206423 -48.000061
v 128.000000 -5.206423 -48.000061
v 128.000000 -5.206423 48.000061
v 124.000000 -13.206423 48.000061
v 180.000000 -13.206423 48.000061
v 112.000000 -37.206421 -48.000061
v 296.000000 -37.206421 -48.000061
v 288.000000 -37.206421 -48.000061
v 208.000000 -37.206421 -48.000061
v 224.000000 -5.206423 -48.000061
v 208.000000 -37.206421 48.000061
v 224.000000 -5.206423 48.000061
v 276.000000 -13.206423 -48.000061
v 220.000000 -13.206423 -48.000061
v 272.000000 -5.206423 -48.000061
v 220.000000 -13.206423 48.000061
v 276.000000 -13.206423 48.000061
v 272.000000 -5.206423 48.000061
v 296.000000 -5.206423 -48.000061
v 288.000000 -37.206421 48.000061
v 296.000000 -37.206421 48.000061
v 296.000000 -5.206423 48.000061
v 384.000000 -37.206421 48.000061
v 392.000000 -37.206421 48.000061
v 304.000000 -37.206421 48.000061
v 392.000000 -5.206423 -48.000061
v 392.000000 -37.206421 -48.000061
v 384.000000 -37.206421 -48.000061
v 368.000000 -5.206423 -48.000061
v 392.000000 -5.206423 48.000061
v 368.000000 -5.206423 48.000061
v 372.000000 -13.206423 -48.000061
v 316.000000 -13.206423 -48.000061
v 320.000000 -5.206423 -48.000061
v 320.000000 -5.206423 48.000061
v 316.000000 -13.206423 48.000061
v 372.000000 -13.206423 48.000061
v 304.000000 -37.206421 -48.000061
v 488.000000 -37.206421 -48.000061
v 480.000000 -37.206421 -48.000061
v 400.000000 -37.206421 -48.000061
v 416.000000 -5.206423 -48.000061
v 400.000000 -37.206421 48.000061
v 416.000000 -5.206423 48.000061
v 468.000000 -13.206423 -48.000061
v 412.000000 -13.206423 -48.000061
v 464.000000 -5.206423 -48.000061
v 412.000000 -13.206423 48.000061
v 468.000000 -13.206423 48.000061
v 464.000000 -5.206423 48.000061
v 488.000000 -5.206423 -48.000061
v 480.000000 -37.206421 48.000061
v 488.000000 -37.206421 48.000061
v 488.000000 -5.206423 48.000061
v 576.000000 -37.206421 48.000061
v 584.000000 -37.206421 48.000061
v 496.000000 -37.206421 48.000061
v 584.000000 -5.206423 -48.000061
v 584.000000 -37.206421 -48.000061
v 576.000000 -37.206421 -48.000061
v 560.000000 -5.206423 -48.000061
v 584.000000 -5.206423 48.000061
v 560.000000 -5.206423 48.000061
v 564.000000 -13.206423 -48.000061
v 508.000000 -13.206423 -48.000061
v 512.000000 -5.206423 -48.000061
v 512.000000 -5.206423 48.000061
v 508.000000 -13.206423 48.000061
v 564.000000 -13.206423 48.000061
v 496.000000 -37.206421 -48.000061
v 680.000000 -37.206421 -48.000061
v 672.000000 -37.206421 -48.000061
v 592.000000 -37.206421 -48.000061
v 608.000000 -5.206423 -48.000061
v 592.000000 -37.206421 48.000061
v 608.000000 -5.206423 48.000061
v 660.000000 -13.206423 -48.000061
v 604.000000 -13.206423 -48.000061
v 656.000000 -5.206423 -48.000061
v 604.000000 -13.206423 48.000061
v 660.000000 -13.206423 48.000061
v 656.000000 -5.206423 48.000061
v 680.000000 -5.206423 -48.000061
v 672.000000 -37.206421 48.000061
v 680.000000 -37.206421 48.000061
v 680.000000 -5.206423 48.000061
v 768.000122 -37.206421 48.000061
v 776.000122 -37.206421 48.000061
v 688.000000 -37.206421 48.000061
v 776.000122 -5.206423 -48.000061
v 776.000122 -37.206421 -48.000061
v 768.000122 -37.206421 -48.000061
v 752.000122 -5.206423 -48.000061
v 776.000122 -5.206423 48.000061
v 752.000122 -5.206423 48.000061
v 756.000122 -13.206423 -48.000061
v 700.000000 -13.206423 -48.000061
v 704.000000 -5.206423 -48.000061
v 704.000000 -5.206423 48.000061
v 700.000000 -13.206423 48.000061
v 756.000122 -13.206423 48.000061
v 688.000000 -37.206421 -48.000061
v 872.000122 -37.206421 -48.000061
v 864.000122 -37.206421 -48.000061
v 784.000122 -37.206421 -48.000061
v 800.000122 -5.206423 -48.000061
v 784.000122 -37.206421 48.000061
v 800.000122 -5.206423 48.000061
v 852.000122 -13.206423 -48.000061
v 796.000122 -13.206423 -48.000061
v 848.000122 -5.206423 -48.000061
v 796.000122 -13.206423 48.000061
v 852.000122 -13.206423 48.000061
v 848.000122 -5.206423 48.000061
v 872.000122 -5.206423 -48.000061
v 864.000122 -37.206421 48.000061
v 872.000122 -37.206421 48.000061
v 872.000122 -5.206423 48.000061
v 960.000122 -37.206421 48.000061
v 968.000122 -37.206421 48.000061
v 880.000122 -37.206421 48.000061
v 968.000122 -5.206423 -48.000061
v 968.000122 -37.206421 -48.000061
v 960.000122 -37.206421 -48.000061
v 944.000122 -5.206423 -48.000061
v 968.000122 -5.206423 48.000061
v 944.000122 -5.206423 48.000061
v 948.000122 -13.206423 -48.000061
v 892.000122 -13.206423 -48.000061
v 896.000122 -5.206423 -48.000061
v 896.000122 -5.206423 48.000061
v 892.000122 -13.206423 48.000061
v 948.000122 -13.206423 48.000061
v 880.000122 -37.206421 -48.000061
v 1064.000122 -37.206421 -48.000061
v 1056.000122 -37.206421 -48.000061
v 976.000122 -37.206421 -48.000061
v 992.000122 -5.206423 -48.000061
v 976.000122 -37.206421 48.000061
v 992.000122 -5.206423 48.000061
v 1044.000122 -13.206423 -48.000061
v 988.000122 -13.206423 -48.000061
v 1040.000122 -5.206423 -48.000061
v 988.000122 -13.206423 48.000061
v 1044.000122 -13.206423 48.000061
v 1040.000122 -5.206423 48.000061
v 1064.000122 -5.206423 -48.000061
v 1056.000122 -37.206421 48.000061
v 1064.000122 -37.206421 48.000061
v 1064.000122 -5.206423 48.000061
v 1152.000122 -37.206421 48.000061
v 1160.000122 -37.206421 48.000061
v 1072.000122 -37.206421 48.000061
v 1160.000122 -37.206421 -48.000061
v 1152.000122 -37.206421 -48.000061
v 1136.000122 -5.206423 -48.000061
v 1136.000122 -5.206423 48.000061
v 1140.000122 -13.206423 -48.000061
v 1084.000122 -13.206423 -48.000061
v 1088.000122 -5.206423 -48.000061
v 1088.000122 -5.206423 48.000061
v 1084.000122 -13.206423 48.000061
v 1140.000122 -13.206423 48.000061
v 1072.000122 -37.206421 -48.000061
v -82.000000 30.793570 196.000061
v -36.000000 30.793570 196.000061
v -28.923218 9.563566 196.000061
v 12.000000 -113.206429 184.000061
v 12.000000 -6.806429 184.000061
v 12.000000 -6.806429 196.000061
v 12.000000 -113.206429 196.000061
v -18.666992 5.459669 196.000061
v -24.000000 -5.206331 196.000061
v -24.000000 -5.206423 184.000061
v -18.666992 5.459578 184.000061
v -28.923950 9.563978 196.000061
v -24.000000 -5.206423 196.000061
v -18.666504 5.460478 196.000061
v -18.666992 5.459669 184.000061
v -24.000000 -5.206331 184.000061
v 12.000000 -261.206421 196.000061
v 12.000000 -261.206421 184.000061
v -24.000000 -5.206423 196.000061
v -152.000000 -261.206421 196.000061
v -280.000000 30.793570 196.000061
v -280.000000 -261.206421 196.000061
v -24.000000 -5.206423 196.000061
v -28.922852 9.562468 196.000061
v 12.000000 16.793570 184.000061
v 12.000000 16.793570 186.000061
v 12.000000 6.793577 196.000061
v -18.000000 6.793577 196.000061
v -18.666504 5.460569 196.000061
v 12.000000 30.793570 48.000061
v 12.000000 30.793570 148.000061
v 12.000000 -261.206421 48.000061
v 12.000000 18.793570 184.000061
vt 0.000000 0.000000
vt 0.000000 0.000000
vt 0.000000 0.000000
vt 0.000000 0.000000
vt 0.000000 0.000000
vt 0.000000 0.000000
vt 0.000000 0.000000
vt 0.000000 0.000000
vt 0.000000 0.000000
vt 0.000000 0.000000
vt 0.000000 0.000000
vt 0.000000 0.000000
vt 0.000000 0.000000
vt 0.000000 0.000000
vt 0.000000 0.000000
vt 0.000000 0.000000
vt 0.000000 0.000000
vt 0.000000 0.000000
vt 0.000000 0.000000
vt 0.000000 0.000000
vt 0.000000 0.000000
vt 0.000000 0.000000
vt 0.000000 0.000000
vt 0.000000 0.000000
vt 0.000000 0.000000
vt 0.000000 0.000000
vt 0.000000 0.000000
vt 0.000000 0.000000
vt 0.000000 0.000000
vt 0.000000 0.000000
vt 0.000000 0.000000
vt 0.000000 0.000000
vt 0.000000 0.000000
vt 0.000000 0.000000
vt 0.000000 0.000000
vt 0.000000 0.000000
vt 0.000000 0.000000
vt 0.000000 0.000000
vt 0.000000 0.000000
vt 0.000000 0.000000
vt 0.000000 0.000000
vt 0.000000 0.000000
vt 0.000000 0.000000
vt 0.000000 0.000000
vt 0.000000 0.000000
vt 0.000000 0.000000
vt 0.000000 0.000000
vt 0.000000 0.000000
vt 0.000000 0.000000
vt 0.000000 0.000000
vt 0.000000 0.000000
vt 0.000000 0.000000
vt 0.000000 0.000000
vt 0.000000 0.000000
vt 0.000000 0.000000
vt 0.000000 0.000000
vt 0.000000 0.000000
vt 0.000000 0.000000
vt 0.000000 0.000000
vt 0.000000 0.000000
vt 0.000000 0.000000
vt 0.000000 0.000000
vt 0.000000 0.000000
vt 0.000000 0.000000
vt 0.000000 0.000000
vt 0.000000 0.000000
vt 0.000000 0.000000
vt 0.000000 0.000000
vt 0.000000 0.000000
vt 0.000000 0.000000
vt 0.000000 0.000000
vt 0.000000 0.000000
vt 0.000000 0.000000
vt 0.000000 0.000000
vt 0.000000 0.000000
vt 0.000000 0.000000
vt 0.000000 0.000000
vt 0.000000 0.000000
vt 0.000000 0.000000
vt 0.000000 0.000000
vt 0.000000 0.000000
vt 0.000000 0.000000
vt 0.000000 0.000000
vt 0.000000 0.000000
vt 0.000000 0.000000
vt 0.000000 0.000000
vt 0.000000 0.000000
vt 0.000000 0.000000
vt 0.000000 0.000000
vt 0.000000 0.000000
vt 0.000000 0.000000
vt 0.000000 0.000000
vt 0.000000 0.000000
vt 0.000000 0.000000
vt 0.000000 0.000000
vt 0.000000 0.000000
vt 0.000000 0.000000
vt 0.000000 0.000000
vt 0.000000 0.000000
vt 0.000000 0.000000
vt 0.000000 0.000000
vt 0.000000 0.000000
vt 0.000000 0.000000
vt 0.000000 0.000000
vt 0.000000 0.000000
vt 0.000000 0.000000
vt 0.000000 0.000000
vt 0.000000 0.000000
vt 0.000000 0.000000
vt 0.000000 0.000000
vt 0.000000 0.000000
vt 0.000000 0.000000
vt 0.000000 0.000000
vt 0.000000 0.000000
vt 0.000000 0.000000
vt 0.000000 0.000000
vt 0.000000 0.000000
vt 0.000000 0.000000
vt 0.000000 0.000000
vt 0.000000 0.000000
vt 0.000000 0.000000
vt 0.000000 0.000000
vt 0.000000 0.000000
vt 0.000000 0.000000
vt 0.000000 0.000000
vt 0.000000 0.000000
vt 0.000000 0.000000
vt 0.000000 0.000000
vt 0.000000 0.000000
vt 0.000000 0.000000
vt 0.000000 0.000000
vt 0.000000 0.000000
vt 0.000000 0.000000
vt 0.000000 0.000000
vt 0.000000 0.000000
vt 0.000000 0.000000
vt 0.000000 0.000000
vt 0.000000 0.000000
vt 0.000000 0.000000
vt 0.000000 0.000000
vt 0.000000 0.000000
vt 0.000000 0.000000
vt 0.000000 0.000000
vt 0.000000 0.000000
vt 0.000000 0.000000
vt 0.000000 0.000000
vt 0.000000 0.000000
vt 0.000000 0.000000
vt 0.000000 0.000000
vt 0.000000 0.000000
vt 0.000000 0.000000
vt 0.000000 0.000000
vt 0.000000 0.000000
vt 0.000000 0.000000
vt 0.000000 0.000000
vt 0.000000 0.000000
vt 0.000000 0.000000
vt 0.000000 0.000000
vt 0.000000 0.000000
vt 0.000000 0.000000
vt 0.000000 0.000000
vt 0.000000 0.000000
vt 0.000000 0.000000
vt 0.000000 0.000000
vt 0.000000 0.000000
vt 0.000000 0.000000
vt 0.000000 0.000000
vt 0.000000 0.000000
vt 0.000000 0.000000
vt 0.000000 0.000000
vt 0.000000 0.000000
vt 0.000000 0.000000
vt 0.000000 0.000000
vt 0.000000 0.000000
vt 0.000000 0.000000
vt 0.000000 0.000000
vt 0.000000 0.000000
vt 0.000000 0.000000
vt 0.000000 0.000000
vt 0.000000 0.000000
vt 0.000000 0.000000
vt 0.000000 0.000000
vt 0.000000 0.000000
vt 0.000000 0.000000
vt 0.000000 0.000000
vt 0.000000 0.000000
vt 0.000000 0.000000
vt 0.000000 0.000000
vt 0.000000 0.000000
vt 0.000000 0.000000
vt 0.000000 0.000000
vt 0.000000 0.000000
vt 0.000000 0.000000
vt 0.000000 0.000000
vt 0.000000 0.000000
vt 0.000000 0.000000
vt 0.000000 0.000000
vt 0.000000 0.000000
vt 0.000000 0.000000
vt 0.000000 0.000000
vt 0.000000 0.000000
vt 0.000000 0.000000
vt 0.000000 0.000000
vt 0.000000 0.000000
vt 0.000000 0.000000
vt 0.000000 0.000000
vt 0.000000 0.000000
vt 0.000000 0.000000
vt 0.000000 0.000000
vt 0.000000 0.000000
vt 0.000000 0.000000
vt 0.000000 0.000000
vt 0.000000 0.000000
vt 0.000000 0.000000
vt 0.000000 0.000000
vt 0.000000 0.000000
vt 0.000000 0.000000
vt 0.000000 0.000000
vt 0.000000 0.000000
vt 0.000000 0.000000
vt 0.000000 0.000000
vt 0.000000 0.000000
vt 0.000000 0.000000
vt 0.000000 0.000000
vt 0.000000 0.000000
vt 0.000000 0.000000
vt 0.000000 0.000000
vt 0.000000 0.000000
vt 0.000000 0.000000
vt 0.000000 0.000000
vt 0.000000 0.000000
vt 0.000000 0.000000
vt 0.000000 0.000000
vt 0.000000 0.000000
vt 0.000000 0.000000
vt 0.000000 0.000000
vt 0.000000 0.000000
vt 0.000000 0.000000
vt 0.000000 0.000000
vt 0.000000 0.000000
vt 0.000000 0.000000
vt 0.000000 0.000000
vt 0.000000 0.000000
vt 0.000000 0.000000
vt 0.000000 0.000000
vt 0.000000 0.000000
vt 0.000000 0.000000
vt 0.000000 0.000000
vt 0.000000 0.000000
vt 0.000000 0.000000
vt 0.000000 0.000000
vt 0.000000 0.000000
vt 0.000000 0.000000
vt 0.000000 0.000000
vt 0.000000 0.000000
vt 0.000000 0.000000
vt 0.000000 0.000000
vn 0.0000 -1.0000 0.0000
vn -1.0000 0.0000 0.0000
vn 1.0000 0.0000 0.0000
vn 0.0000 0.0000 -1.0000
vn 0.0000 0.0000 1.0000
vn -0.7071 0.0000 0.7071
vn -0.7071 0.0000 -0.7071
vn 0.7071 0.0000 -0.7071
vn 0.7071 0.0000 0.7071
vn -0.8944 0.4472 -0.0000
vn 0.8944 -0.4472 -0.0000
usemtl concretefloor010a.vmt
s 1
f 9/1/1 10/2/1 11/3/1
f 12/4/1 9/1/1 11/3/1
f 13/5/1 12/4/1 11/3/1
f 14/6/1 13/5/1 11/3/1
f 15/7/1 14/6/1 11/3/1
f 16/8/1 15/7/1 11/3/1
f 16/8/2 11/3/2 1/9/2
f 8/10/2 16/8/2 1/9/2
f 12/4/3 13/5/3 5/11/3
f 4/12/3 12/4/3 5/11/3
f 14/6/4 15/7/4 7/13/4
f 6/14/4 14/6/4 7/13/4
f 2/15/5 10/2/5 9/1/5
f 2/15/5 9/1/5 3/16/5
f 1/9/6 11/3/6 10/2/6
f 1/9/6 10/2/6 2/15/6
f 15/7/7 16/8/7 8/10/7
f 7/13/7 15/7/7 8/10/7
f 5/11/8 13/5/8 14/6/8
f 5/11/8 14/6/8 6/14/8
f 9/1/9 12/4/9 4/12/9
f 3/16/9 9/1/9 4/12/9
f 20/17/3 21/18/3 18/19/3
f 17/20/3 20/17/3 18/19/3
f 21/18/4 22/21/4 19/22/4
f 18/19/4 21/18/4 19/22/4
f 24/23/3 20/17/3 17/20/3
f 23/24/3 24/23/3 17/20/3
f 26/25/4 27/26/4 25/27/4
f 8/10/4 26/25/4 25/27/4
f 28/28/5 29/29/5 30/30/5
f 28/28/5 30/30/5 1/9/5
f 33/31/4 34/32/4 35/33/4
f 36/34/4 33/31/4 35/33/4
f 37/35/5 38/36/5 39/37/5
f 37/35/5 39/37/5 40/38/5
f 41/39/4 42/40/4 36/34/4
f 43/41/4 41/39/4 36/34/4
f 40/38/5 44/42/5 45/43/5
f 40/38/5 45/43/5 46/44/5
f 47/45/4 31/46/4 32/47/4
f 47/45/4 32/47/4 43/41/4
f 48/48/5 49/49/5 50/50/5
f 46/44/5 48/48/5 50/50/5
f 54/51/4 55/52/4 56/53/4
f 54/51/4 56/53/4 57/54/4
f 51/55/5 52/56/5 58/57/5
f 59/58/5 51/55/5 58/57/5
f 60/59/4 61/60/4 62/61/4
f 57/54/4 60/59/4 62/61/4
f 63/62/5 64/63/5 65/64/5
f 63/62/5 65/64/5 59/58/5
f 66/65/4 31/46/4 47/45/4
f 62/61/4 66/65/4 47/45/4
f 50/50/5 49/49/5 53/66/5
f 50/50/5 53/66/5 63/62/5
f 69/67/4 55/52/4 54/51/4
f 70/68/4 69/67/4 54/51/4
f 58/57/5 52/56/5 71/69/5
f 58/57/5 71/69/5 72/70/5
f 73/71/4 74/72/4 70/68/4
f 75/73/4 73/71/4 70/68/4
f 72/70/5 76/74/5 77/75/5
f 72/70/5 77/75/5 78/76/5
f 79/77/4 67/78/4 68/79/4
f 79/77/4 68/79/4 75/73/4
f 80/80/5 81/81/5 82/82/5
f 78/76/5 80/80/5 82/82/5
f 86/83/4 87/84/4 88/85/4
f 86/83/4 88/85/4 89/86/4
f 83/87/5 84/88/5 90/89/5
f 91/90/5 83/87/5 90/89/5
f 92/91/4 93/92/4 94/93/4
f 89/86/4 92/91/4 94/93/4
f 95/94/5 96/95/5 97/96/5
f 95/94/5 97/96/5 91/90/5
f 98/97/4 67/78/4 79/77/4
f 94/93/4 98/97/4 79/77/4
f 82/82/5 81/81/5 85/98/5
f 82/82/5 85/98/5 95/94/5
f 101/99/4 87/84/4 86/83/4
f 102/100/4 101/99/4 86/83/4
f 90/89/5 84/88/5 103/101/5
f 90/89/5 103/101/5 104/102/5
f 105/103/4 106/104/4 102/100/4
f 107/105/4 105/103/4 102/100/4
f 104/102/5 108/106/5 109/107/5
f 104/102/5 109/107/5 110/108/5
f 111/109/4 99/110/4 100/111/4
f 111/109/4 100/111/4 107/105/4
f 112/112/5 113/113/5 114/114/5
f 110/108/5 112/112/5 114/114/5
f 118/115/4 119/116/4 120/117/4
f 118/115/4 120/117/4 121/118/4
f 115/119/5 116/120/5 122/121/5
f 123/122/5 115/119/5 122/121/5
f 124/123/4 125/124/4 126/125/4
f 121/118/4 124/123/4 126/125/4
f 127/126/5 128/127/5 129/128/5
f 127/126/5 129/128/5 123/122/5
f 130/129/4 99/110/4 111/109/4
f 126/125/4 130/129/4 111/109/4
f 114/114/5 113/113/5 117/130/5
f 114/114/5 117/130/5 127/126/5
f 133/131/4 119/116/4 118/115/4
f 134/132/4 133/131/4 118/115/4
f 122/121/5 116/120/5 135/133/5
f 122/121/5 135/133/5 136/134/5
f 137/135/4 138/136/4 134/132/4
f 139/137/4 137/135/4 134/132/4
f 136/134/5 140/138/5 141/139/5
f 136/134/5 141/139/5 142/140/5
f 143/141/4 131/142/4 132/143/4
f 143/141/4 132/143/4 139/137/4
f 144/144/5 145/145/5 146/146/5
f 142/140/5 144/144/5 146/146/5
f 150/147/4 151/148/4 152/149/4
f 150/147/4 152/149/4 153/150/4
f 147/151/5 148/152/5 154/153/5
f 155/154/5 147/151/5 154/153/5
f 156/155/4 157/156/4 158/157/4
f 153/150/4 156/155/4 158/157/4
f 159/158/5 160/159/5 161/160/5
f 159/158/5 161/160/5 155/154/5
f 162/161/4 131/142/4 143/141/4
f 158/157/4 162/161/4 143/141/4
f 146/146/5 145/145/5 149/162/5
f 146/146/5 149/162/5 159/158/5
f 165/163/4 151/148/4 150/147/4
f 166/164/4 165/163/4 150/147/4
f 154/153/5 148/152/5 167/165/5
f 154/153/5 167/165/5 168/166/5
f 169/167/4 170/168/4 166/164/4
f 171/169/4 169/167/4 166/164/4
f 168/166/5 172/170/5 173/171/5
f 168/166/5 173/171/5 174/172/5
f 175/173/4 163/174/4 164/175/4
f 175/173/4 164/175/4 171/169/4
f 176/176/5 177/177/5 178/178/5
f 174/172/5 176/176/5 178/178/5
f 182/179/4 183/180/4 184/181/4
f 182/179/4 184/181/4 185/182/4
f 179/183/5 180/184/5 186/185/5
f 187/186/5 179/183/5 186/185/5
f 188/187/4 189/188/4 190/189/4
f 185/182/4 188/187/4 190/189/4
f 191/190/5 192/191/5 193/192/5
f 191/190/5 193/192/5 187/186/5
f 194/193/4 163/174/4 175/173/4
f 190/189/4 194/193/4 175/173/4
f 178/178/5 177/177/5 181/194/5
f 178/178/5 181/194/5 191/190/5
f 197/195/4 183/180/4 182/179/4
f 198/196/4 197/195/4 182/179/4
f 186/185/5 180/184/5 199/197/5
f 186/185/5 199/197/5 200/198/5
f 201/199/4 202/200/4 198/196/4
f 203/201/4 201/199/4 198/196/4
f 200/198/5 204/202/5 205/203/5
f 200/198/5 205/203/5 206/204/5
f 207/205/4 195/206/4 196/207/4
f 207/205/4 196/207/4 203/201/4
f 208/208/5 209/209/5 210/210/5
f 206/204/5 208/208/5 210/210/5
f 26/25/4 214/211/4 215/212/4
f 26/25/4 215/212/4 216/213/4
f 211/214/5 212/215/5 30/30/5
f 217/216/5 211/214/5 30/30/5
f 218/217/4 219/218/4 220/219/4
f 216/213/4 218/217/4 220/219/4
f 221/220/5 222/221/5 223/222/5
f 221/220/5 223/222/5 217/216/5
f 224/223/4 195/206/4 207/205/4
f 220/219/4 224/223/4 207/205/4
f 210/210/5 209/209/5 213/224/5
f 210/210/5 213/224/5 221/220/5
f 225/225/5 227/226/5 226/227/5
f 228/228/3 229/229/3 230/230/3
f 231/231/3 228/228/3 230/230/3
f 230/230/5 232/232/5 233/233/5
f 230/230/5 233/233/5 231/231/5
f 232/232/10 235/234/10 234/235/10
f 232/232/10 234/235/10 233/233/10
f 236/236/5 237/237/5 238/238/5
f 240/239/11 239/240/11 238/238/11
f 237/237/11 240/239/11 238/238/11
f 228/228/3 231/231/3 241/241/3
f 242/242/3 228/228/3 241/241/3
f 241/241/5 231/231/5 243/243/5
f 241/241/5 243/243/5 244/244/5
f 245/245/5 246/246/5 244/244/5
f 245/245/5 244/244/5 247/247/5
f 245/245/5 247/247/5 248/248/5
f 245/245/5 248/248/5 225/225/5
f 230/230/3 229/229/3 249/249/3
f 230/230/3 249/249/3 250/250/3
f 230/230/3 250/250/3 251/251/3
f 252/252/5 253/253/5 230/230/5
f 251/251/5 252/252/5 230/230/5
f 242/242/3 256/254/3 254/255/3
f 257/256/3 242/242/3 254/255/3
f 255/257/3 257/256/3 254/255/3
