# Blender v3.2.0 OBJ File: ''
# www.blender.org
mtllib concreteceiling002a.mtl
o concreteceiling002a.vmt_gm_eternal_ring.013
v 1160.000122 26.793570 -32.000061
v 12.000000 26.793570 -48.000061
v 12.000000 26.793570 -32.000061
v 12.000000 -5.206423 -48.000061
v 12.000000 -5.206423 -32.000061
v 1160.000122 -5.206423 -32.000061
v 12.000000 26.793570 48.000061
v 1160.000122 26.793570 32.000061
v 12.000000 26.793570 32.000061
v 12.000000 -5.206423 48.000061
v 1160.000122 -5.206423 32.000061
v 12.000000 -5.206423 32.000061
v 1054.000122 26.793570 -32.000061
v 1054.000122 26.793570 32.000061
v 1054.000122 -5.206423 -32.000061
v 1054.000122 -5.206423 32.000061
vt 0.000000 0.000000
vt 0.000000 0.000000
vt 0.000000 0.000000
vt 0.000000 0.000000
vt 0.000000 0.000000
vt 0.000000 0.000000
vt 0.000000 0.000000
vt 0.000000 0.000000
vt 0.000000 0.000000
vt 0.000000 0.000000
vt 0.000000 0.000000
vt 0.000000 0.000000
vt 0.000000 0.000000
vt 0.000000 0.000000
vt 0.000000 0.000000
vt 0.000000 0.000000
vn 0.0000 0.0000 1.0000
vn 0.0000 0.0000 -1.0000
vn 1.0000 0.0000 0.0000
vn -1.0000 0.0000 0.0000
usemtl concreteceiling002a.vmt
s 1
f 3/1/1 5/2/1 6/3/1
f 3/1/1 6/3/1 1/4/1
f 11/5/2 12/6/2 9/7/2
f 8/8/2 11/5/2 9/7/2
f 7/9/3 10/10/3 4/11/3
f 7/9/3 4/11/3 2/12/3
f 15/13/4 16/14/4 14/15/4
f 13/16/4 15/13/4 14/15/4
